# xmcd
#
# Track frame offsets:
#	150
#	13312
#	26817
#	45152
#	63732
#	77882
#	94907
#	109605
#	123172
#	145485
#	161800
#	178165
#	192022
#	204167
#
# Disc length: 2934
#
# Revision: 1
# Processed by: cddbd v1.5.1PL0 Copyright (c) Steve Scherf et al.
# Submitted via: VisiTrax 2.9.3.171 - For more info visit www.synapsa.com
# Normalized: r0:DSETVAR1
#
DISCID=c00b740e
DTITLE=Various Artist - Mr Music 12-98
DYEAR=1900
DGENRE=
TTITLE0=Allison Moorer - I Found a Letter (That You Wrote)
TTITLE1=Gary Allan - Red Lips, Blue Eyes, Little White Lies
TTITLE2=Vince Gill - Til The Season Comes Around Again
TTITLE3=Shane Stockton - Train, Train
TTITLE4=Leo Nelson - Comin' Up Zero
TTITLE5=Carina Samuelsson - The Lonley Side
TTITLE6=Sammy Kershaw - Christmas Time's a Comin'
TTITLE7=Trisha Yearwood - The Sweetest Gift
TTITLE8=Kevin Deal with John Newton - Grandpa - Amazing Grace
TTITLE9=Toby Keith - Hot Rod Sleigh
TTITLE10=Stop The Truck - Heartbreak hotel
TTITLE11=Jack Daniel's Band - How Can I Love
TTITLE12=Danni Leigh - If The Jukebox Took Teardrops
TTITLE13=Chester Lester - The Man In The Mirror
EXTD=
EXTT0=
EXTT1=
EXTT2=
EXTT3=
EXTT4=
EXTT5=
EXTT6=
EXTT7=
EXTT8=
EXTT9=
EXTT10=
EXTT11=
EXTT12=
EXTT13=
PLAYORDER=
